<svg width="16" height="14" viewBox="0 0 16 14" fill="none" xmlns="http://www.w3.org/2000/svg">
<path d="M4.25367 7.73108C5.34184 7.73108 6.42086 7.73108 7.51734 7.73108C7.51734 7.79241 7.51734 7.84623 7.51734 7.90004C7.51734 9.7317 7.51734 11.563 7.51734 13.3946C7.51734 13.799 7.3195 13.9874 6.89595 13.9874C6.19641 13.9874 5.49646 13.9882 4.79692 13.987C4.46066 13.9862 4.24743 13.7903 4.24702 13.4698C4.24494 11.5776 4.24619 9.6854 4.2466 7.7936C4.24577 7.77896 4.24951 7.76432 4.25367 7.73108Z" fill="white" fill-opacity="0.5"/>
<path d="M12.7397 7.72986C13.827 7.72986 14.9015 7.72986 15.9996 7.72986C15.9996 8.01871 15.9996 8.3044 15.9996 8.59009C15.9992 10.1839 15.9984 11.7778 15.998 13.3716C15.998 13.8117 15.8142 13.9873 15.3566 13.9873C14.6625 13.9873 13.9683 13.9885 13.2742 13.9869C12.945 13.9862 12.7326 13.7923 12.7322 13.4793C12.7301 11.5879 12.7318 9.69645 12.7326 7.80504C12.7326 7.78526 12.7364 7.76547 12.7397 7.72986Z" fill="white" fill-opacity="0.5"/>
<path d="M8.48395 7.729C9.58127 7.729 10.6561 7.729 11.7534 7.729C11.7534 7.78678 11.7534 7.8398 11.7534 7.89282C11.7534 9.73912 11.7534 11.5854 11.7534 13.4317C11.7534 13.7954 11.549 13.9873 11.1624 13.9873C10.4733 13.9877 9.78452 13.9873 9.09537 13.9873C8.67723 13.9873 8.4852 13.8061 8.48478 13.4032C8.48354 12.2632 8.48395 11.1233 8.48395 9.98287C8.48395 9.29159 8.48395 8.60071 8.48437 7.90944C8.48395 7.85523 8.48395 7.80062 8.48395 7.729Z" fill="white" fill-opacity="0.5"/>
<path d="M0.00956224 7.75671C1.09607 7.75671 2.17011 7.75671 3.26742 7.75671C3.26742 7.85564 3.26742 7.94942 3.26742 8.04359C3.267 9.95597 3.26659 11.8684 3.26576 13.7807C3.26576 13.9976 3.26534 13.998 3.0359 13.998C2.08698 13.998 1.13805 13.9964 0.189123 14C0.0552837 14.0003 -0.000413341 13.9651 2.30804e-06 13.829C0.0033275 11.8359 0.0024962 9.84281 0.0024962 7.8497C0.0024962 7.82438 0.00623705 7.79945 0.00956224 7.75671Z" fill="white" fill-opacity="0.5"/>
<path d="M6.81994 5.09889C6.17776 5.09889 5.55429 5.09889 4.92499 5.09889C4.91959 5.07436 4.91211 5.05576 4.91211 5.03756C4.92001 4.34708 4.90006 3.65462 4.9437 2.96611C5.00771 1.95353 5.31072 0.996354 5.8095 0.0977361C5.82155 0.0763687 5.83693 0.0569797 5.87558 0C6.02771 0.314971 6.18109 0.599474 6.30537 0.895057C6.67405 1.77191 6.82617 2.68754 6.81994 3.62969C6.81703 4.11322 6.81994 4.59716 6.81994 5.09889Z" fill="white" fill-opacity="0.5"/>
<path d="M10.1061 0.0174561C10.4806 0.643837 10.7296 1.29277 10.8917 1.97534C11.0675 2.71568 11.0596 3.46671 11.0576 4.21813C11.0567 4.5054 11.0576 4.79228 11.0576 5.0934C10.4204 5.0934 9.79482 5.0934 9.15222 5.0934C9.15222 5.02059 9.15139 4.9561 9.15222 4.89199C9.15971 4.27155 9.14225 3.64991 9.18007 3.03145C9.24367 1.99236 9.5421 1.00906 10.0592 0.0890764C10.0683 0.0716659 10.0804 0.0558382 10.1061 0.0174561Z" fill="white" fill-opacity="0.5"/>
<path d="M14.3516 0.0206299C14.6908 0.590823 14.9298 1.17961 15.0902 1.79927C15.2694 2.49054 15.308 3.19369 15.3059 3.90158C15.3047 4.29451 15.3055 4.68782 15.3055 5.0942C14.6704 5.0942 14.0478 5.0942 13.421 5.0942C13.4151 5.08233 13.4027 5.06967 13.4031 5.05701C13.4139 4.30559 13.3935 3.55219 13.4459 2.80354C13.5103 1.88395 13.8025 1.01501 14.2419 0.192756C14.2635 0.152396 14.2863 0.112826 14.31 0.073257C14.3179 0.0598035 14.3287 0.0487241 14.3516 0.0206299Z" fill="white" fill-opacity="0.5"/>
<path d="M1.62482 0.0356445C1.88834 0.468532 2.08328 0.912104 2.2379 1.37309C2.48687 2.11461 2.58081 2.87711 2.58289 3.65188C2.58413 4.13502 2.5833 4.61816 2.5833 5.11396C1.94611 5.11396 1.32014 5.11396 0.695008 5.11396C0.688358 5.10249 0.679629 5.09418 0.679629 5.08587C0.687942 4.18963 0.626842 3.29219 0.769825 2.39872C0.886622 1.66392 1.24616 0.634327 1.62482 0.0356445Z" fill="white" fill-opacity="0.5"/>
<path d="M2.96323 7.10737C2.0808 7.10737 1.18259 7.10737 0.306396 7.10737C0.434832 6.66736 0.562852 6.22854 0.696275 5.77112C1.30437 5.77112 1.94863 5.77112 2.57376 5.77112C2.70428 6.21825 2.83313 6.66063 2.96323 7.10737Z" fill="white" fill-opacity="0.5"/>
<path d="M6.81028 5.74148C6.94162 6.19574 7.0684 6.63456 7.19642 7.07774C6.32522 7.07774 5.42409 7.07774 4.51465 7.07774C4.57783 6.91748 4.65348 6.76197 4.70003 6.59895C4.77027 6.35204 4.81683 6.0984 4.88291 5.8503C4.89414 5.80796 4.95441 5.74663 4.99264 5.74623C5.60656 5.7395 6.22047 5.74148 6.81028 5.74148Z" fill="white" fill-opacity="0.5"/>
<path d="M8.77808 7.07813C8.87201 6.78453 8.96928 6.49409 9.05615 6.20048C9.08898 6.09008 9.09979 5.97296 9.11434 5.8586C9.12473 5.77551 9.1584 5.73752 9.25483 5.73792C9.83175 5.74188 10.4087 5.73911 10.9852 5.74465C11.0272 5.74504 11.1016 5.79134 11.1049 5.8222C11.1564 6.25588 11.2861 6.6674 11.4823 7.07813C10.5666 7.07813 9.66757 7.07813 8.77808 7.07813Z" fill="white" fill-opacity="0.5"/>
<path d="M13.4181 5.74744C14.0312 5.74744 14.6754 5.74744 15.2943 5.74744C15.4265 6.20169 15.5553 6.64368 15.6838 7.08448C14.8097 7.08448 13.911 7.08448 13.0303 7.08448C13.1575 6.64566 13.2855 6.20446 13.4181 5.74744Z" fill="white" fill-opacity="0.5"/>
</svg>
