<svg width="15" height="22" viewBox="0 0 15 22" fill="none" xmlns="http://www.w3.org/2000/svg">
<g clip-path="url(#clip0_0_83)">
<path d="M2.48384 15.4184C2.10359 15.7636 1.72948 16.1088 1.34923 16.454C1.0671 16.7071 0.748185 16.7704 0.459931 16.6438C-0.0184487 16.431 -0.153376 15.8787 0.226874 15.5162C0.962842 14.8086 1.72334 14.1297 2.47158 13.4393C2.65557 13.2667 2.83343 13.0884 3.01129 12.91C3.04809 12.9215 3.07875 12.933 3.11555 12.9446C3.06035 13.3358 3.01742 13.727 2.93769 14.1124C2.85796 14.5037 2.7537 14.8949 2.6617 15.2746C5.78957 13.796 8.9113 13.796 12.0453 15.2631C11.8797 14.7165 11.7018 14.147 11.524 13.5601C11.6037 13.5486 11.6344 13.5314 11.6589 13.5371C12.5359 13.8766 13.3271 14.3483 13.9404 15.0387C14.2348 15.3724 14.2103 15.8039 13.8914 16.0685C13.5602 16.3389 13.1063 16.2814 12.7813 15.9477C12.6034 15.7636 12.4072 15.6025 12.2109 15.4242C12.2661 15.9189 12.3642 16.3849 12.352 16.8452C12.3274 18.1109 11.9717 19.319 11.5424 20.5099C11.4565 20.7458 11.3768 20.9817 11.2848 21.2176C11.0395 21.8619 10.3648 22.1726 9.75766 21.931C9.10756 21.6663 8.91743 21.0392 9.18729 20.3891C9.6718 19.2327 10.0275 18.0361 10.095 16.7819C10.1072 16.546 10.0398 16.4137 9.7638 16.3734C9.08303 16.2699 8.40226 16.1088 7.72148 16.034C6.85672 15.9419 6.01649 16.1433 5.18239 16.3274C4.59975 16.454 4.56909 16.4655 4.63042 17.0465C4.75308 18.2317 5.09653 19.3708 5.55651 20.4812C5.80797 21.091 5.58718 21.6663 5.0168 21.9137C4.44029 22.1668 3.75952 21.9367 3.50807 21.3729C2.97449 20.1762 2.63717 18.9278 2.42251 17.6449C2.29985 16.9142 2.33052 16.1951 2.55744 15.4874C2.52678 15.4529 2.50224 15.4357 2.48384 15.4184Z" fill="white"/>
<path d="M5.1333 12.8583C5.33569 12.6914 5.55035 12.5303 5.74661 12.352C7.42707 10.7929 9.09526 9.23379 10.7819 7.68044C10.9536 7.52511 10.9658 7.41005 10.8248 7.24896C10.5733 6.96705 10.3219 6.6794 10.0214 6.33421C10.236 6.15011 10.4813 5.94875 10.7144 5.74164C11.0701 5.42521 11.4136 5.10304 11.7693 4.78661C12.1434 4.44718 12.5604 4.42417 12.8794 4.72333C13.1983 5.01674 13.1738 5.44822 12.8119 5.79341C12.2109 6.36873 11.616 6.94404 11.0088 7.51935C11.9165 9.05544 11.7447 11.8917 11.5301 13.4796C9.47551 12.7317 7.36574 12.6224 5.21303 12.9331C5.1885 12.9043 5.16397 12.8813 5.1333 12.8583Z" fill="white"/>
<path d="M3.06032 12.726C3.06032 11.7537 3.03578 10.7756 3.06645 9.80336C3.09098 9.08997 3.27497 8.40534 3.59389 7.75524C4.09067 6.72543 4.8941 6.05806 6.09618 5.8567C7.13267 5.68411 8.16916 5.68411 9.17499 6.00053C9.45097 6.08683 9.70243 6.23641 9.86802 6.3112C7.64172 8.46863 5.41541 10.6261 3.18911 12.7777C3.15231 12.7605 3.10325 12.7432 3.06032 12.726Z" fill="white"/>
<path d="M7.35966 2.22555e-05C8.83773 -0.00573088 10.0214 1.10462 9.99075 2.51414C9.96008 3.90065 8.85613 4.86142 7.50072 4.92471C5.78346 4.9995 4.71631 3.73381 4.71631 2.47387C4.72244 1.08737 5.87546 0.00577539 7.35966 2.22555e-05Z" fill="white"/>
</g>
<defs>
<clipPath id="clip0_0_83">
<rect width="14.1429" height="22" fill="white"/>
</clipPath>
</defs>
</svg>
