<svg width="22" height="22" viewBox="0 0 22 22" fill="none" xmlns="http://www.w3.org/2000/svg">
<path d="M8.74267 12.7293L9.27362 13.2603L9.80395 12.7287L14.5208 8.0009C14.521 8.00067 14.5212 8.00043 14.5215 8.00019C14.587 7.93545 14.6754 7.89913 14.7675 7.89913C14.86 7.89913 14.9487 7.93572 15.0143 8.0009L15.0149 8.0015C15.0477 8.03404 15.0737 8.07275 15.0915 8.11539C15.1092 8.15804 15.1184 8.20379 15.1184 8.25C15.1184 8.2962 15.1092 8.34195 15.0915 8.3846C15.0737 8.42725 15.0477 8.46596 15.0148 8.49849L15.0127 8.50067L9.51484 13.9985C9.51461 13.9987 9.51438 13.999 9.51415 13.9992C9.44903 14.0634 9.36134 14.0996 9.26985 14.1L9.26867 14.1C9.22261 14.1003 9.17695 14.0914 9.1343 14.074L8.85071 14.7683L9.1343 14.074C9.0922 14.0568 9.05385 14.0316 9.02141 13.9997L6.43846 11.4058L6.41745 11.3847L6.39485 11.3653C6.35821 11.334 6.32845 11.2954 6.30744 11.2519L5.63231 11.5786L6.30744 11.2519C6.28643 11.2085 6.27463 11.1612 6.27277 11.113C6.27091 11.0648 6.27903 11.0167 6.29662 10.9718C6.31422 10.9269 6.34091 10.8861 6.37502 10.852C6.40913 10.8179 6.44992 10.7912 6.49483 10.7736L6.22125 10.0753L6.49484 10.7736C6.53975 10.756 6.58781 10.7479 6.63601 10.7498C6.68422 10.7516 6.73151 10.7634 6.77493 10.7844C6.81836 10.8054 6.85697 10.8352 6.88835 10.8718L6.90719 10.8938L6.92767 10.9143L8.74267 12.7293ZM5.30541 2.47744C6.99101 1.35115 8.97275 0.75 11 0.75C12.3461 0.75 13.6789 1.01512 14.9225 1.53023C16.1661 2.04535 17.296 2.80035 18.2478 3.75215C19.1996 4.70396 19.9547 5.83391 20.4698 7.07749C20.9849 8.32108 21.25 9.65395 21.25 11C21.25 13.0273 20.6488 15.009 19.5226 16.6946C18.3963 18.3802 16.7955 19.694 14.9225 20.4698C13.0496 21.2456 10.9886 21.4485 9.00033 21.053C7.01202 20.6575 5.18565 19.6813 3.75216 18.2478C2.31867 16.8144 1.34245 14.988 0.946956 12.9997C0.551457 11.0114 0.754441 8.95043 1.53024 7.07749C2.30604 5.20455 3.61981 3.60372 5.30541 2.47744ZM5.69431 18.9405C7.2648 19.9899 9.11119 20.55 11 20.55C13.5328 20.55 15.9619 19.5438 17.7529 17.7529C19.5438 15.9619 20.55 13.5328 20.55 11C20.55 9.11119 19.9899 7.26479 18.9405 5.6943C17.8912 4.12381 16.3997 2.89977 14.6546 2.17695C12.9096 1.45413 10.9894 1.26501 9.13689 1.6335C7.28437 2.00199 5.58273 2.91154 4.24713 4.24713C2.91154 5.58272 2.00199 7.28437 1.63351 9.13688C1.26502 10.9894 1.45414 12.9096 2.17695 14.6546C2.89977 16.3997 4.12382 17.8912 5.69431 18.9405Z" stroke="#44AF69" stroke-width="1.5"/>
</svg>
