<svg width="15" height="14" viewBox="0 0 15 14" fill="none" xmlns="http://www.w3.org/2000/svg">
<path d="M15 0.0199773C15 4.27968 15 8.54451 15 12.8042C14.9587 12.9376 14.9312 13.0762 14.8762 13.1994C14.6194 13.7588 14.1975 14 13.6472 14C10.0795 14 6.51181 14 2.93952 14C2.82029 14 2.69189 14 2.57725 13.9692C1.8848 13.7793 1.40789 13.3226 1.20153 12.5425C0.839255 11.1927 0.472396 9.84295 0.114709 8.48805C-0.146678 7.49754 0.0413375 6.60968 0.65124 5.83985C1.75182 4.46443 2.84781 3.08388 3.96214 1.72386C4.87011 0.615309 6.01196 0.0251094 7.35558 0.0148451C9.84563 -0.0108157 12.3357 0.00458078 14.8257 0.00458078C14.8854 0.00458078 14.9404 0.0148451 15 0.0199773ZM13.7389 6.28635C13.7389 4.65946 13.7389 3.04282 13.7389 1.40566C13.6747 1.40566 13.6197 1.40566 13.5601 1.40566C11.4873 1.40566 9.40999 1.3954 7.33724 1.41079C6.39716 1.41593 5.58549 1.8265 4.94807 2.59633C3.97131 3.77159 3.02206 4.97765 2.06365 6.17345C2.04072 6.20424 2.02237 6.23503 1.99027 6.28122C5.91566 6.28635 9.82271 6.28635 13.7389 6.28635ZM11.2535 9.09365C12.0881 9.09365 12.9089 9.09365 13.7343 9.09365C13.7343 8.63175 13.7343 8.17499 13.7343 7.71823C12.9043 7.71823 12.0835 7.71823 11.2535 7.71823C11.2535 8.17499 11.2535 8.62662 11.2535 9.09365Z" fill="white"/>
</svg>
