<svg width="20" height="12" viewBox="0 0 20 12" fill="none" xmlns="http://www.w3.org/2000/svg">
<path d="M19.36 3.88609C19.36 3.88609 19.1608 3.49648 18.9145 3.49648H16.6196C16.3741 3.49648 16.175 3.67134 16.175 3.88609V4.26306H15.5494C15.5494 3.89074 15.5494 3.65671 15.5494 3.63411C15.5494 3.49648 15.3859 3.50911 15.3859 3.50911H13.9919C13.9919 1.59898 12.8889 1.60563 12.8889 1.60563H10.4223V0.956729H12.8889V0H4.71056V0.956729H7.39992V1.60563C7.39992 1.60563 6.0294 1.60563 4.92416 1.60563L3.4358 2.60092H2.28194C2.03565 2.60092 1.83647 2.77511 1.83647 2.98986V5.48773H1.09533V2.81966H0V9.51875H1.09533V6.76093H1.83647V9.34789C1.83647 9.56264 2.03565 9.73683 2.28194 9.73683H3.4358L7.05634 12C7.05634 12 13.6019 12 14.6319 12C15.6604 12 15.5494 11.2334 15.5494 11.2334C15.5494 11.2334 15.5494 10.7693 15.5494 10.0693H16.175V10.9289C16.175 11.1443 16.3741 11.3185 16.6196 11.3185H18.9145C19.1608 11.3185 19.36 10.9289 19.36 10.9289L20 9.29935V5.51632L19.36 3.88609Z" fill="white"/>
</svg>
