<svg width="12" height="14" viewBox="0 0 12 14" fill="none" xmlns="http://www.w3.org/2000/svg">
<path d="M11.0188 0.217529H5.64038C5.61749 0.217529 5.59615 0.228253 5.57879 0.243573L5.3862 0.429698L5.38069 0.424337L1.86425 3.83588L1.87057 3.84124L0.37876 5.28966C0.362184 5.30498 0.353516 5.32719 0.353516 5.35016V13.048C0.353516 13.5719 0.791582 14 1.33384 14H11.0188C11.5587 14 11.9999 13.5719 11.9999 13.048V1.16884C11.9999 0.64493 11.5587 0.217529 11.0188 0.217529ZM9.27441 11.4548C9.41254 11.5919 9.41254 11.8102 9.27441 11.9442C9.20416 12.0116 9.11102 12.0469 9.02104 12.0469C8.92948 12.0469 8.83871 12.0116 8.76925 11.9442L7.69261 10.8995H4.8684L3.79257 11.9442C3.72232 12.0116 3.62918 12.0469 3.5392 12.0469C3.44764 12.0469 3.35687 12.0116 3.28741 11.9442C3.14849 11.8102 3.14849 11.5919 3.28741 11.4548L4.36405 10.4116V7.67023L3.28741 6.62471C3.14849 6.4899 3.14849 6.27237 3.28741 6.13526C3.42633 6.00122 3.65286 6.00122 3.79257 6.13526L4.8684 7.18002H7.69261L8.76925 6.13526C8.90817 6.00122 9.1347 6.00122 9.27441 6.13526C9.41254 6.27237 9.41254 6.4899 9.27441 6.62471L8.19699 7.67023V10.4116L9.27441 11.4548ZM9.86008 5.17706C9.86008 5.22608 9.8206 5.26361 9.77166 5.26361H3.49341L6.3468 2.49547H9.77166C9.8206 2.49547 9.86008 2.53376 9.86008 2.58202V5.17706Z" fill="#FF6666"/>
<path d="M5.0769 10.2076H7.48433V7.87219H5.0769V10.2076Z" fill="#FF6666"/>
<path d="M1.3672 3.27423L3.37364 1.32641C3.43521 1.26667 3.43521 1.17016 3.37364 1.10965L2.39883 0.162932C2.33647 0.103188 2.23703 0.103188 2.17467 0.162932L1.72478 0.60029C1.72005 0.589566 1.71292 0.580376 1.70424 0.571184L1.14539 0.0281243C1.10909 -0.00634354 1.05543 -0.00940664 1.02464 0.0204654L0.0214219 0.993989C-0.0101509 1.02386 -0.00623513 1.07671 0.0292843 1.11041L0.589709 1.65347C0.597603 1.6619 0.607891 1.66879 0.618153 1.67415L0.168996 2.11075C0.106639 2.17049 0.106639 2.26777 0.168996 2.32751L1.14381 3.27423C1.20617 3.33474 1.30484 3.33474 1.3672 3.27423Z" fill="#FF6666"/>
</svg>
