<svg width="14" height="13" viewBox="0 0 14 13" fill="none" xmlns="http://www.w3.org/2000/svg">
<path d="M1.30156 7.22521L6.24258 11.945C6.44766 12.1409 6.71836 12.25 7 12.25C7.28164 12.25 7.55234 12.1409 7.75742 11.945L12.6984 7.22521C13.5297 6.43344 14 5.32273 14 4.16165V3.99938C14 2.04374 12.6191 0.376275 10.7352 0.0545314C9.48828 -0.158099 8.21953 0.258769 7.32812 1.17084L7 1.50657L6.67188 1.17084C5.78047 0.258769 4.51172 -0.158099 3.26484 0.0545314C1.38086 0.376275 0 2.04374 0 3.99938V4.16165C0 5.32273 0.470312 6.43344 1.30156 7.22521Z" fill="#FB3640"/>
</svg>
