<svg width="20" height="16" viewBox="0 0 20 16" fill="none" xmlns="http://www.w3.org/2000/svg">
    <path d="M11 0.799805C7 0.799805 7 15.1998 11 15.1998C15 15.1998 20 12.4998 20 7.9998C20 3.4998 15 0.799805 11 0.799805ZM11.1 13.1998C10.7 12.7998 10 10.9998 10 7.9998C10 4.9998 10.7 3.1998 11.1 2.7998C14 2.8998 18 4.6998 18 7.9998C18 11.2998 14 13.0998 11.1 13.1998ZM0 0.999804H7.5C7.3 1.3998 7 1.7998 6.9 2.3998C6.8 2.5998 6.8 2.7998 6.7 2.9998H0V0.999804ZM6 6.9998H0V4.9998H6.2C6.1 5.5998 6.1 6.2998 6 6.9998ZM6.7 12.9998C6.9 13.7998 7.2 14.3998 7.6 14.9998H0.0999999V12.9998H6.7ZM6.2 10.9998H0V8.9998H6C6.1 9.6998 6.1 10.3998 6.2 10.9998Z" fill="white"/>
</svg>
