<svg width="14" height="24" viewBox="0 0 14 24" fill="none" xmlns="http://www.w3.org/2000/svg">
<g clip-path="url(#clip0_0_200)">
<path d="M3.11111 4C3.11111 2.93913 3.52083 1.92172 4.25014 1.17157C4.97945 0.421427 5.9686 0 7 0C8.0314 0 9.02055 0.421427 9.74986 1.17157C10.4792 1.92172 10.8889 2.93913 10.8889 4V12.8C10.8889 13.8609 10.4792 14.8783 9.74986 15.6284C9.02055 16.3786 8.0314 16.8 7 16.8C5.9686 16.8 4.97945 16.3786 4.25014 15.6284C3.52083 14.8783 3.11111 13.8609 3.11111 12.8V4ZM0.777778 10.4C0.984057 10.4 1.18189 10.4843 1.32775 10.6343C1.47361 10.7843 1.55556 10.9878 1.55556 11.2V12.8C1.55556 14.2852 2.12916 15.7096 3.1502 16.7598C4.17123 17.81 5.55604 18.4 7 18.4C8.44396 18.4 9.82877 17.81 10.8498 16.7598C11.8708 15.7096 12.4444 14.2852 12.4444 12.8V11.2C12.4444 10.9878 12.5264 10.7843 12.6722 10.6343C12.8181 10.4843 13.0159 10.4 13.2222 10.4C13.4285 10.4 13.6263 10.4843 13.7722 10.6343C13.9181 10.7843 14 10.9878 14 11.2V12.8C14 14.5711 13.3654 16.2801 12.2175 17.6003C11.0696 18.9205 9.48901 19.7592 7.77778 19.9563V22.4H10.8889C11.0952 22.4 11.293 22.4843 11.4389 22.6343C11.5847 22.7843 11.6667 22.9878 11.6667 23.2C11.6667 23.4122 11.5847 23.6157 11.4389 23.7657C11.293 23.9157 11.0952 24 10.8889 24H3.11111C2.90483 24 2.707 23.9157 2.56114 23.7657C2.41528 23.6157 2.33333 23.4122 2.33333 23.2C2.33333 22.9878 2.41528 22.7843 2.56114 22.6343C2.707 22.4843 2.90483 22.4 3.11111 22.4H6.22222V19.9563C4.51099 19.7592 2.93037 18.9205 1.7825 17.6003C0.634626 16.2801 2.50726e-05 14.5711 0 12.8V11.2C0 10.9878 0.0819441 10.7843 0.227806 10.6343C0.373667 10.4843 0.571498 10.4 0.777778 10.4Z" fill="white"/>
</g>
<defs>
<clipPath id="clip0_0_200">
<rect width="14" height="24" fill="white"/>
</clipPath>
</defs>
</svg>
