<svg width="9" height="18" viewBox="0 0 9 18" fill="none" xmlns="http://www.w3.org/2000/svg">
<g clip-path="url(#clip0_0_91)">
<path d="M8.40517 2.64607C7.9806 2.2816 7.78233 2.24158 6.46767 2.24158H5.31681V1.36938H3.68103V2.24368H2.53017C1.21552 2.24368 1.01724 2.28371 0.592672 2.64818C0.336207 2.86728 0.075431 3.33708 0.0258621 3.67837L0 3.89115H9L8.97414 3.67627C8.92241 3.33708 8.66164 2.86728 8.40517 2.64607Z" fill="#41EAB7"/>
<path d="M2.83847 1.51895C2.957 1.58005 3.19623 1.5948 3.91174 1.5948H3.68114V2.14887H5.31692V1.5948H5.06476C5.82554 1.5948 5.9958 1.58005 6.1445 1.50421C6.62511 1.27036 6.72209 0.64887 6.33847 0.254909C6.25226 0.164319 6.09924 0.0695156 5.9958 0.0442347C5.77166 -0.0168608 3.18114 -0.0168608 2.97209 0.0442347C2.75657 0.109544 2.48717 0.38342 2.42467 0.604628C2.332 0.943813 2.52166 1.35884 2.83847 1.51895Z" fill="#41EAB7"/>
<path d="M0.0107759 10.6286L0.0258621 16.9172L0.144397 17.1531C0.3125 17.4881 0.696121 17.8168 1.02802 17.9137C1.42241 18.0295 7.56681 18.0338 7.96121 17.9179C8.28448 17.8231 8.65086 17.5134 8.83621 17.1742L8.97414 16.9193L8.98922 10.6328L9 4.35046H4.5H0L0.0107759 10.6286ZM6.48922 7.98038C6.42241 8.08572 5.99353 8.75566 5.53879 9.46985L4.71121 10.7697L5.85129 10.795L6.99569 10.8203L4.84914 12.5689C3.6681 13.5295 2.62931 14.3722 2.5431 14.4439L2.37931 14.5682L2.50647 14.368C2.57328 14.2585 3.00647 13.5843 3.46336 12.868L4.29095 11.5682L3.14009 11.5534L1.98922 11.545L4.28017 9.66999C5.53879 8.63979 6.57543 7.80131 6.58621 7.79499C6.59483 7.79499 6.54957 7.88136 6.48922 7.98038Z" fill="#41EAB7"/>
</g>
<defs>
<clipPath id="clip0_0_91">
<rect width="9" height="18" fill="white"/>
</clipPath>
</defs>
</svg>
