<svg width="12" height="19" viewBox="0 0 12 19" fill="none" xmlns="http://www.w3.org/2000/svg">
<path d="M1.33175 5.33944C2.60159 6.38332 3.73171 6.30048 4.91114 5.06604C5.98988 5.70397 6.61247 6.64222 6.62686 7.91187C6.65357 10.5299 6.65151 13.1499 6.62686 15.77C6.61042 17.5305 5.16798 18.9617 3.43788 18.999C1.61942 19.0384 0.0783543 17.6859 0.0372592 15.8674C-0.0223287 13.181 0.000273609 10.4926 0.0310949 7.80624C0.0434234 6.79964 0.524236 5.98358 1.33175 5.33944Z" fill="#A5FFD6"/>
<path d="M8.09601 7.61783C8.4597 7.61783 8.75353 7.61783 9.109 7.61783C9.109 7.79388 9.109 7.96579 9.109 8.1377C9.109 9.2168 9.10694 10.2938 9.11105 11.3729C9.11311 11.9798 9.42749 12.3505 9.94734 12.3692C10.4918 12.3878 10.8494 12.0336 10.8494 11.3957C10.8514 9.26651 10.8473 7.13938 10.8206 5.01019C10.8083 4.10507 10.1508 3.54999 9.11516 3.53963C8.0056 3.52721 6.89603 3.52099 5.78646 3.54585C5.42688 3.55413 5.19675 3.49614 5.15565 3.08604C5.14127 2.9452 5.05497 2.81057 4.98511 2.62416C5.79057 2.62416 6.56932 2.61381 7.34602 2.62623C8.16998 2.63866 9.00215 2.60552 9.81583 2.71322C11.1679 2.89135 11.8706 3.77989 11.8726 5.15724C11.8747 7.14974 11.8788 9.14223 11.8665 11.1347C11.8644 11.4848 11.8315 11.8493 11.735 12.1828C11.3261 13.6098 9.59803 14.0303 8.55833 12.9698C8.24806 12.6529 8.09601 12.2718 8.09601 11.8265C8.09601 10.4367 8.09601 9.04489 8.09601 7.61783Z" fill="#A5FFD6"/>
<path d="M1.38137 3.78416C1.37726 2.85626 2.06765 2.13962 2.97791 2.13134C3.90871 2.12098 4.63815 2.83762 4.64226 3.76551C4.64842 4.67477 3.93337 5.41005 3.03544 5.42041C2.09847 5.42869 1.38548 4.72448 1.38137 3.78416ZM2.99229 3.25807C2.68203 3.29535 2.49299 3.4714 2.49915 3.78416C2.50532 4.10105 2.70668 4.28539 3.01695 4.28124C3.33133 4.2771 3.51626 4.08034 3.51215 3.76344C3.50598 3.44448 3.30462 3.28707 2.99229 3.25807Z" fill="#A5FFD6"/>
<path d="M4.23724 1.02525C4.23724 1.2945 4.23724 1.52233 4.23724 1.74809C4.21258 1.77088 4.18792 1.79159 4.16327 1.81437C3.87766 1.48091 3.16876 1.81852 3.15438 1.02732C2.75576 1.02732 2.36741 1.02939 1.97906 1.02732C1.64414 1.02317 1.39551 0.907187 1.38318 0.517801C1.37291 0.188479 1.57633 0.0041424 1.96879 0.0020712C3.14205 -0.0020712 4.31737 0.0020712 5.49064 0C5.82556 0 6.04337 0.153269 6.05364 0.501231C6.06391 0.853335 5.84405 1.01696 5.51324 1.02317C5.09818 1.03146 4.68312 1.02525 4.23724 1.02525Z" fill="#A5FFD6"/>
<path d="M9.70074 5.97553C9.69458 6.57203 9.24048 7.03805 8.65487 7.0422C8.059 7.04841 7.56996 6.55546 7.58024 5.95689C7.59051 5.33553 8.05078 4.89229 8.67337 4.90264C9.26925 4.913 9.70691 5.37074 9.70074 5.97553ZM8.67542 5.43494C8.5131 5.65242 8.35077 5.77462 8.35899 5.88439C8.36926 6.02316 8.5172 6.15158 8.60761 6.28414C8.72268 6.17643 8.90966 6.08323 8.93227 5.95896C8.95487 5.83676 8.80898 5.68556 8.67542 5.43494Z" fill="#A5FFD6"/>
</svg>
