<svg width="14" height="25" viewBox="0 0 14 25" fill="none" xmlns="http://www.w3.org/2000/svg">
<path d="M4.08227 1.17188C4.08227 0.522461 3.69227 0 3.2075 0C2.72273 0 2.33273 0.522461 2.33273 1.17188V4.6875H1.74954C0.78365 4.6875 0 5.7373 0 7.03125V14.6533C0 15.2734 0.185889 15.8691 0.513929 16.3086L0.656079 16.499C0.984119 16.9385 1.17001 17.5342 1.17001 18.1543V22.6562C1.17001 23.9502 1.95366 25 2.91955 25H11.0804C12.0463 25 12.83 23.9502 12.83 22.6562V18.1592C12.83 17.5391 13.0159 16.9434 13.3439 16.5039L13.4861 16.3135C13.8141 15.874 14 15.2783 14 14.6582V7.03125C14 5.7373 13.2163 4.6875 12.2505 4.6875H11.6636C11.6636 3.82324 11.1424 3.125 10.4973 3.125C9.85212 3.125 9.3309 3.82324 9.3309 4.6875H8.16454C8.16454 3.82324 7.64332 3.125 6.99818 3.125C6.35303 3.125 5.83181 3.82324 5.83181 4.6875H4.08227V1.17188ZM4.08227 7.8125H9.91408C10.2348 7.8125 10.4973 8.16406 10.4973 8.59375C10.4973 9.02344 10.2348 9.375 9.91408 9.375H4.08227C3.76152 9.375 3.49909 9.02344 3.49909 8.59375C3.49909 8.16406 3.76152 7.8125 4.08227 7.8125ZM4.08227 10.9375H9.91408C10.2348 10.9375 10.4973 11.2891 10.4973 11.7188C10.4973 12.1484 10.2348 12.5 9.91408 12.5H4.08227C3.76152 12.5 3.49909 12.1484 3.49909 11.7188C3.49909 11.2891 3.76152 10.9375 4.08227 10.9375ZM4.08227 14.0625H9.91408C10.2348 14.0625 10.4973 14.4141 10.4973 14.8438C10.4973 15.2734 10.2348 15.625 9.91408 15.625H4.08227C3.76152 15.625 3.49909 15.2734 3.49909 14.8438C3.49909 14.4141 3.76152 14.0625 4.08227 14.0625Z" fill="white"/>
</svg>
