<svg width="22" height="22" viewBox="0 0 22 22" fill="none" xmlns="http://www.w3.org/2000/svg">
<path d="M17.6797 17.6818C16.1359 19.2267 14.1044 20.1887 11.9311 20.404C9.7571 20.6194 7.57567 20.0744 5.75847 18.8618C3.94127 17.6492 2.60072 15.844 1.96521 13.7538C1.3297 11.6637 1.43855 9.41784 2.27322 7.39894C3.10789 5.38004 4.61674 3.71299 6.54269 2.68181C8.46865 1.65064 10.6926 1.31913 12.8355 1.74377C14.9785 2.16841 16.9079 3.32292 18.2951 5.01062C19.6821 6.69806 20.4412 8.81414 20.4432 10.9984M17.6797 17.6818C18.5594 16.8057 19.2566 15.7638 19.731 14.6164C20.2052 13.4694 20.4473 12.2397 20.4432 10.9984M17.6797 17.6818L17.1504 17.1504L17.681 17.6805C17.6806 17.6809 17.6801 17.6814 17.6797 17.6818ZM20.4432 10.9984C20.4432 10.9988 20.4432 10.9991 20.4432 10.9994L19.6932 11L20.4432 10.9975C20.4432 10.9978 20.4432 10.9981 20.4432 10.9984ZM14.499 7.49669L14.4989 7.49671L14.5033 7.50104C14.5349 7.53233 14.5599 7.56957 14.577 7.61059L15.2693 7.32216L14.577 7.61059C14.5941 7.65162 14.6029 7.69562 14.6029 7.74006C14.6029 7.7845 14.5941 7.8285 14.577 7.86952L15.221 8.13783L14.577 7.86953C14.5599 7.91055 14.5349 7.94778 14.5033 7.97908L14.5023 7.98009L12.003 10.4685L11.4692 11L12.003 11.5315L14.5023 14.0199L14.5033 14.0209C14.5349 14.0522 14.5599 14.0894 14.577 14.1305L15.2693 13.842L14.577 14.1305C14.5941 14.1715 14.6029 14.2155 14.6029 14.2599C14.6029 14.3044 14.5941 14.3484 14.577 14.3894L15.2693 14.6778L14.577 14.3894C14.5599 14.4304 14.5349 14.4677 14.5033 14.499L14.5033 14.4989L14.499 14.5033C14.4677 14.5349 14.4304 14.5599 14.3894 14.577L14.6778 15.2693L14.3894 14.577C14.3484 14.5941 14.3044 14.6029 14.2599 14.6029C14.2155 14.6029 14.1715 14.5941 14.1305 14.577L13.842 15.2693L14.1305 14.577C14.0894 14.5599 14.0522 14.5349 14.0209 14.5033L14.0199 14.5023L11.5315 12.003L11 11.4692L10.4685 12.003L7.98009 14.5023L7.97908 14.5033C7.94778 14.5349 7.91055 14.5599 7.86953 14.577L8.13783 15.221L7.86952 14.577C7.8285 14.5941 7.7845 14.6029 7.74006 14.6029C7.69562 14.6029 7.65162 14.5941 7.61059 14.577L7.32216 15.2693L7.61059 14.577C7.56957 14.5599 7.53233 14.5349 7.50104 14.5033L7.50106 14.5033L7.49669 14.499C7.46514 14.4677 7.44009 14.4304 7.423 14.3894C7.40591 14.3484 7.39711 14.3044 7.39711 14.2599C7.39711 14.2155 7.40591 14.1715 7.423 14.1305C7.44009 14.0894 7.46514 14.0522 7.49669 14.0209L7.49771 14.0199L9.997 11.5315L10.5308 11L9.997 10.4685L7.49887 7.98125C7.49875 7.98112 7.49862 7.981 7.4985 7.98088C7.43476 7.91694 7.39896 7.83035 7.39896 7.74006C7.39896 7.64959 7.4349 7.56284 7.49887 7.49887L6.96854 6.96854L7.49887 7.49887C7.56284 7.4349 7.64959 7.39896 7.74006 7.39896C7.83035 7.39896 7.91694 7.43476 7.98088 7.4985C7.981 7.49862 7.98112 7.49875 7.98125 7.49887L10.4685 9.997L11 10.5308L11.5315 9.997L14.0199 7.49771L14.0209 7.49669C14.0522 7.46514 14.0894 7.44009 14.1305 7.423C14.1715 7.40591 14.2155 7.39711 14.2599 7.39711C14.3044 7.39711 14.3484 7.40591 14.3894 7.423C14.4304 7.44009 14.4677 7.46514 14.499 7.49669ZM18.1431 3.83844L18.1522 3.84782L18.1616 3.85687C19.1278 4.79008 19.8985 5.90638 20.4287 7.14063C20.9589 8.37488 21.2379 9.70236 21.2496 11.0456C21.2613 12.3889 21.0053 13.721 20.4967 14.9643C19.988 16.2076 19.2368 17.3371 18.287 18.287C17.3371 19.2368 16.2076 19.988 14.9643 20.4967C13.721 21.0053 12.3889 21.2613 11.0456 21.2496C9.70236 21.2379 8.37488 20.9589 7.14063 20.4287C5.90638 19.8985 4.79008 19.1278 3.85687 18.1616L3.84782 18.1522L3.83844 18.1431C2.87221 17.2099 2.10152 16.0936 1.57132 14.8594C1.04113 13.6251 0.762055 12.2976 0.750382 10.9544C0.738709 9.61112 0.994673 8.27899 1.50334 7.03571C2.012 5.79243 2.76318 4.66291 3.71305 3.71305C4.66291 2.76318 5.79243 2.012 7.03571 1.50334C8.27899 0.994673 9.61112 0.738709 10.9544 0.750382C12.2976 0.762055 13.6251 1.04113 14.8594 1.57132C16.0936 2.10152 17.2099 2.87221 18.1431 3.83844Z" stroke="#FB3640" stroke-width="1.5"/>
</svg>
