<svg width="18" height="20" viewBox="0 0 18 20" fill="none" xmlns="http://www.w3.org/2000/svg">
<path d="M9 0C8.11286 0 6.63043 0.33125 5.23543 0.7C3.80829 1.075 2.36958 1.51875 1.52358 1.7875C1.16987 1.90106 0.85628 2.10933 0.618842 2.38838C0.381405 2.66742 0.229748 3.00592 0.181293 3.365C-0.584993 8.96125 1.19315 13.1088 3.35058 15.8525C4.26547 17.0262 5.35632 18.0598 6.58672 18.9188C7.083 19.26 7.54329 19.5212 7.93414 19.7C8.29414 19.865 8.68114 20 9 20C9.31886 20 9.70457 19.865 10.0659 19.7C10.5371 19.4773 10.9878 19.216 11.4133 18.9188C12.6437 18.0598 13.7346 17.0262 14.6494 15.8525C16.8069 13.1088 18.585 8.96125 17.8187 3.365C17.7703 3.00575 17.6187 2.66705 17.3813 2.38779C17.1439 2.10853 16.8302 1.90004 16.4764 1.78625C15.2483 1.39477 14.0107 1.03216 12.7646 0.69875C11.3696 0.3325 9.88714 0 9 0ZM11.7591 6.4325C11.8799 6.31514 12.0436 6.24921 12.2143 6.24921C12.385 6.24921 12.5487 6.31514 12.6694 6.4325C12.7901 6.54986 12.858 6.70903 12.858 6.875C12.858 7.04097 12.7901 7.20014 12.6694 7.3175L8.81229 11.0675C8.75257 11.1257 8.68163 11.1719 8.60353 11.2034C8.52543 11.2349 8.4417 11.2511 8.35714 11.2511C8.27259 11.2511 8.18886 11.2349 8.11076 11.2034C8.03266 11.1719 7.96172 11.1257 7.902 11.0675L5.97343 9.1925C5.91366 9.13439 5.86625 9.0654 5.8339 8.98948C5.80155 8.91356 5.7849 8.83218 5.7849 8.75C5.7849 8.66782 5.80155 8.58644 5.8339 8.51052C5.86625 8.4346 5.91366 8.36561 5.97343 8.3075C6.0332 8.24939 6.10416 8.20329 6.18225 8.17185C6.26034 8.1404 6.34405 8.12421 6.42857 8.12421C6.5131 8.12421 6.5968 8.1404 6.67489 8.17185C6.75299 8.20329 6.82395 8.24939 6.88372 8.3075L8.35714 9.74125L11.7591 6.4325Z" fill="white"/>
</svg>
