<svg width="14" height="20" viewBox="0 0 14 20" fill="none" xmlns="http://www.w3.org/2000/svg">
    <path d="M11.1375 0.0855473C11.262 0.156466 11.3584 0.266775 11.4109 0.398452C11.4634 0.530128 11.4688 0.67539 11.4264 0.810506L9.13429 8.12509H13.3634C13.4877 8.12504 13.6093 8.16074 13.7131 8.22777C13.817 8.29481 13.8986 8.39025 13.9479 8.50231C13.9971 8.61437 14.0119 8.73815 13.9904 8.85836C13.9688 8.97858 13.9119 9.08997 13.8267 9.17878L3.64521 19.8032C3.5467 19.9061 3.41561 19.9731 3.2733 19.9935C3.131 20.0138 2.98587 19.9862 2.86158 19.9152C2.7373 19.8442 2.64117 19.7339 2.58888 19.6023C2.53658 19.4707 2.5312 19.3257 2.57361 19.1907L4.86571 11.8749H0.636594C0.512311 11.8749 0.390733 11.8392 0.286869 11.7722C0.183005 11.7052 0.101403 11.6097 0.0521348 11.4977C0.00286682 11.3856 -0.0119097 11.2618 0.00962931 11.1416C0.0311683 11.0214 0.0880797 10.91 0.173338 10.8212L10.3548 0.196791C10.4532 0.0940457 10.5841 0.0270114 10.7262 0.00658749C10.8683 -0.0138364 11.0132 0.0135512 11.1375 0.0842974V0.0855473Z" fill="#FDE047"/>
</svg>
