<svg width="14" height="16" viewBox="0 0 14 16" fill="none" xmlns="http://www.w3.org/2000/svg">
<path d="M10.4738 3.41051e-05L9.11345 2.92167L10.5808 3.50558L11.9412 0.583939L10.4738 0L10.4738 3.41051e-05ZM3.53419 0.0116822L2.05627 0.572291L3.36243 3.51498L4.84035 2.95437L3.53423 0.0116822H3.53419ZM4.67254 0.227956L4.3729 0.343824L5.43285 2.73247L5.67601 3.28062L5.08358 3.50391L3.60577 4.06452L3.01287 4.2893L2.76972 3.7413L1.71736 1.37114L1.30841 1.52931C1.94672 2.31808 2.2334 3.30316 2.10939 4.28153C1.98537 5.2599 1.4601 6.15702 0.641826 6.788V8.03012H4.08693V10.6884H0.641789V11.1742H4.08689V13.8362H0.641789V15.1419C1.26074 15.7141 4.13055 16 7.00044 16C9.87029 16 12.7401 15.7141 13.3591 15.1419V13.8362H9.91392V11.1746H13.3591V10.6883H9.91281V8.02668H13.3578V6.7849C12.5396 6.15392 12.0143 5.2568 11.8903 4.27843C11.7663 3.30006 12.053 2.31498 12.6913 1.52621L12.2735 1.36443L11.1682 3.73786L10.9146 4.28232L10.3257 4.0479L8.86038 3.46685L8.27149 3.23242L8.52508 2.68799L9.61866 0.338954L9.3279 0.227922C9.09729 0.611673 8.75986 0.931431 8.35059 1.15406C7.94132 1.37669 7.47509 1.49408 7.00022 1.49408C6.52535 1.49408 6.05912 1.37669 5.64985 1.15406C5.24058 0.931431 4.90315 0.611673 4.67254 0.227922V0.227956ZM0 8.61928V10.0962H3.44632V8.61928H0ZM10.5537 8.61928V10.0962H14V8.61928H10.5537ZM0 11.7671V13.244H3.44632V11.7671H0V11.7671ZM10.5537 11.7671V13.244H14V11.7671H10.5537V11.7671Z" fill="white"/>
</svg>
